# xmcd
#
# Track frame offsets: 
#        150
#        26259
#        46359
#        81197
#        123985
#        144310
#        174966
#        196266
#        222666
#        243872
#
# Disc length: 3825 seconds
#
# Revision: 0
# Processed by: cddbd v1.5.2PL0 Copyright (c) Steve Scherf et al.
# Submitted via: ExactAudioCopy v1.0b1
#
DISCID=800eef0a
DTITLE=Markandeya dasa - The Offering
DYEAR=2011
DGENRE=Alternative
TTITLE0=The perfect guide
TTITLE1=Rescue
TTITLE2=I depend on you
TTITLE3=You take me by the hand
TTITLE4=Caitanyas mood
TTITLE5=Sankirtana
TTITLE6=Every mantra
TTITLE7=One single book
TTITLE8=The only way
TTITLE9=Oh Govinda
EXTD=
EXTT0=
EXTT1=
EXTT2=
EXTT3=
EXTT4=
EXTT5=
EXTT6=
EXTT7=
EXTT8=
EXTT9=
PLAYORDER=
